<svg xmlns="http://www.w3.org/2000/svg" version="1.1" viewBox="-5.0 -10.0 110.0 135.0">
 <g>
  <path d="m54.781 7.8125h-9.5586c-4.2578 0-7.7188 3.4648-7.7188 7.7188v1.6562h-18.75c-3.4453 0-6.25 2.8047-6.25 6.25v7.8125c0 1.7266 1.3984 3.125 3.125 3.125h0.75781l5.8984 48.902c0.58594 5.0781 4.8828 8.9102 9.9961 8.9102h33.883c5.1094 0 9.4102-3.8281 9.9922-8.8945l5.8984-48.918h2.3242c1.7266 0 3.125-1.3984 3.125-3.125v-7.8125c0-3.4453-2.8047-6.25-6.25-6.25h-18.75v-1.6562c0-4.2578-3.4648-7.7188-7.7188-7.7188zm-11.031 7.7188c0-0.8125 0.66016-1.4688 1.4688-1.4688h9.5586c0.8125 0 1.4688 0.66016 1.4688 1.4688v1.6562h-12.5v-1.6562zm26.199 67.031c-0.22266 1.9258-1.8516 3.375-3.7891 3.375h-33.883c-1.9375 0-3.5664-1.4531-3.7891-3.3906l-5.8086-48.172h53.078zm11.301-54.438h-62.5v-4.6875h62.5z"/>
  <path d="m50 78.148c1.7266 0 3.125-1.3984 3.125-3.125v-31.273c0-1.7266-1.3984-3.125-3.125-3.125s-3.125 1.3984-3.125 3.125v31.273c0 1.7266 1.3984 3.125 3.125 3.125z"/>
  <path d="m36.211 78.398c0.078124 0 0.15625 0 0.23047-0.007813 1.7227-0.125 3.0156-1.625 2.8906-3.3438l-2.2969-31.359c-0.125-1.7227-1.6289-3.0312-3.3438-2.8906-1.7227 0.125-3.0156 1.625-2.8906 3.3438l2.2969 31.359c0.12109 1.6445 1.4922 2.8984 3.1133 2.8984z"/>
  <path d="m63.559 78.391c0.078125 0.007813 0.15625 0.007813 0.23047 0.007813 1.6211 0 2.9922-1.2539 3.1133-2.8984l2.2969-31.359c0.125-1.7227-1.168-3.2188-2.8906-3.3438-1.7305-0.14062-3.2227 1.168-3.3477 2.8906l-2.2969 31.359c-0.125 1.7227 1.168 3.2188 2.8906 3.3438z"/>
 </g>
<text x="0.0" y="117.5" font-size="5.0" font-weight="bold" font-family="Arbeit Regular, Helvetica, Arial-Unicode, Arial, Sans-serif" fill="#000000">Created by Glyphy</text><text x="0.0" y="122.5" font-size="5.0" font-weight="bold" font-family="Arbeit Regular, Helvetica, Arial-Unicode, Arial, Sans-serif" fill="#000000">from Noun Project</text></svg>